<svg xmlns="http://www.w3.org/2000/svg" viewBox ="0 0 405 200" preserveAspectRatio="xMidYMid meet">

	<g  stroke-linejoin='round' >
<polygon points="100,100 73.2050807568877,200 0,200 1.4210854715202E-14,126.794919243112" stroke="black" stroke-width="4" fill="#000000"/>"

<polygon points="100,100 1.4210854715202E-14,126.794919243112 0,73.2050807568878" stroke="black" stroke-width="4" fill="lightgrey"/>"

<polygon points="100,100 0,73.2050807568878 -1.4210854715202E-14,0 73.2050807568877,1.4210854715202E-14" stroke="black" stroke-width="4" fill="#000000"/>"

<polygon points="100,100 73.2050807568877,1.4210854715202E-14 126.794919243112,0" stroke="black" stroke-width="4" fill="lightgrey"/>"

<polygon points="100,100 126.794919243112,0 200,-5.6843418860808E-14 200,73.2050807568877" stroke="black" stroke-width="4" fill="#000000"/>"

<polygon points="100,100 200,73.2050807568877 200,126.794919243112" stroke="black" stroke-width="4" fill="lightgrey"/>"

<polygon points="100,100 200,126.794919243112 200,200 126.794919243112,200" stroke="black" stroke-width="4" fill="#000000"/>"

<polygon points="100,100 126.794919243112,200 73.2050807568877,200" stroke="black" stroke-width="4" fill="lightgrey"/>"

<polygon points="305,100 331.794919243112,1.4210854715202E-14 278.205080756888,0" stroke="black" stroke-width="4" fill="lightgrey"/>"

<polygon points="305,100 278.205080756888,0 205,-5.6843418860808E-14 205,73.2050807568877" stroke="black" stroke-width="4" fill="#FFFFFF"/>"

<polygon points="305,100 205,73.2050807568877 205,126.794919243112" stroke="black" stroke-width="4" fill="lightgrey"/>"

<polygon points="305,100 205,126.794919243112 205,200 278.205080756888,200" stroke="black" stroke-width="4" fill="#FFFFFF"/>"

<polygon points="305,100 278.205080756888,200 331.794919243112,200" stroke="black" stroke-width="4" fill="lightgrey"/>"

<polygon points="305,100 331.794919243112,200 405,200 405,126.794919243112" stroke="black" stroke-width="4" fill="#FFFFFF"/>"

<polygon points="305,100 405,126.794919243112 405,73.2050807568878" stroke="black" stroke-width="4" fill="lightgrey"/>"

<polygon points="305,100 405,73.2050807568878 405,0 331.794919243112,1.4210854715202E-14" stroke="black" stroke-width="4" fill="#FFFFFF"/>"

	</g>
</svg>